<?xml version="1.0" encoding="iso-8859-1"?>
<!-- Generator: Adobe Illustrator 19.0.0, SVG Export Plug-In . SVG Version: 6.00 Build 0)  -->
<svg version="1.1" id="Capa_1" xmlns="http://www.w3.org/2000/svg" xmlns:xlink="http://www.w3.org/1999/xlink" x="0px" y="0px"
	 viewBox="0 0 511.999 511.999" style="enable-background:new 0 0 511.999 511.999;" xml:space="preserve">
<g>
	<g>
		<path d="M507.185,417.32L10.203,225.941c-3.823-1.472-8.241,0.489-9.713,4.313c-1.471,3.822,0.491,8.242,4.313,9.713
			l238.604,91.882l-89.47,111.837c-3.864,4.831-0.298,12.209,5.868,12.209h192.38c6.165,0,9.732-7.379,5.868-12.209l-78.261-97.825
			l221.993,85.485c4.027,1.55,8.648-0.718,9.896-4.843C512.803,422.786,510.805,418.713,507.185,417.32z M336.548,440.865H175.438v0
			l80.555-100.693L336.548,440.865z"/>
	</g>
</g>
<g>
	<g>
		<path d="M170.131,90.39c-2.633-3.208-7.369-3.673-10.576-1.041c-3.208,2.633-3.674,7.369-1.041,10.577
			c11.493,14.003,17.822,31.712,17.822,49.864c0,43.371-35.285,78.655-78.655,78.655s-78.655-35.285-78.655-78.655
			S54.31,71.134,97.681,71.134c12.038,0,23.586,2.645,34.325,7.862c3.733,1.813,8.23,0.258,10.043-3.476
			c1.813-3.733,0.258-8.229-3.476-10.043c-12.802-6.22-26.56-9.374-40.893-9.374c-51.658,0-93.685,42.027-93.685,93.685
			c0,51.658,42.028,93.685,93.686,93.685c51.658,0,93.685-42.027,93.685-93.685C191.366,128.169,183.825,107.074,170.131,90.39z"/>
	</g>
</g>
<g>
	<g>
		<path d="M118.521,141.674c4.151,0,7.515-3.365,7.515-7.515v-5.21c0-11.985-9.156-21.87-20.841-23.031v-8.231
			c0-4.15-3.364-7.515-7.515-7.515c-4.151,0-7.515,3.365-7.515,7.515v8.591c-11.857,2.3-20.841,12.755-20.841,25.275
			c0,14.199,11.552,25.751,25.751,25.751h5.209c5.912,0,10.721,4.81,10.721,10.721s-4.81,10.721-10.721,10.721h-7.815
			c-4.475,0-8.116-3.641-8.116-8.116c0-4.15-3.364-7.515-7.515-7.515c-4.151,0-7.515,3.365-7.515,7.515
			c0,11.985,9.156,21.87,20.841,23.031v8.231c0,4.15,3.364,7.515,7.515,7.515s7.515-3.365,7.515-7.515v-8.591
			c11.857-2.299,20.841-12.755,20.841-25.275c0-14.199-11.552-25.751-25.751-25.751h-5.209c-5.912,0-10.721-4.81-10.721-10.721
			c0-5.912,4.81-10.721,10.721-10.721h7.815c4.475,0,8.116,3.641,8.116,8.116v5.21C111.006,138.309,114.371,141.674,118.521,141.674
			z"/>
	</g>
</g>
<g>
	<g>
		<path d="M439.857,179.277v-11.452h7.515c4.151,0,7.515-3.365,7.515-7.515s-3.364-7.515-7.515-7.515h-7.515v-1.002
			c0-4.15-3.364-7.515-7.515-7.515h-32.063c-4.151,0-7.515,3.365-7.515,7.515v1.002h-7.014c-4.151,0-7.515,3.365-7.515,7.515
			s3.364,7.515,7.515,7.515h7.014v11.452c-41.415,10.519-72.143,48.114-72.143,92.754c0,52.763,42.925,95.689,95.689,95.689
			c52.763,0,95.689-42.926,95.689-95.689C511.999,227.391,481.272,189.796,439.857,179.277z M407.793,159.309h17.034v17.034h-17.034
			V159.309z M416.31,352.691c-44.476,0-80.659-36.183-80.659-80.659c0-44.476,36.184-80.659,80.659-80.659
			s80.659,36.184,80.659,80.659C496.97,316.507,460.786,352.691,416.31,352.691z"/>
	</g>
</g>
<g>
	<g>
		<path d="M416.31,208.406c-35.083,0-63.626,28.542-63.626,63.626s28.542,63.626,63.626,63.626
			c35.083,0,63.626-28.542,63.626-63.626S451.394,208.406,416.31,208.406z M416.31,320.627c-26.796,0-48.596-21.8-48.596-48.596
			c0-26.796,21.8-48.596,48.596-48.596s48.596,21.8,48.596,48.596C464.906,298.827,443.106,320.627,416.31,320.627z"/>
	</g>
</g>
<g>
	<g>
		<path d="M446.61,259.847c-2.302-3.454-6.968-4.387-10.421-2.084l-18.921,12.614l-19.691-19.691c-2.936-2.935-7.693-2.935-10.628,0
			c-2.935,2.935-2.935,7.693,0,10.627l24.047,24.048c2.502,2.502,6.536,2.904,9.483,0.939l24.048-16.032
			C447.979,267.966,448.913,263.3,446.61,259.847z"/>
	</g>
</g>
<g>
</g>
<g>
</g>
<g>
</g>
<g>
</g>
<g>
</g>
<g>
</g>
<g>
</g>
<g>
</g>
<g>
</g>
<g>
</g>
<g>
</g>
<g>
</g>
<g>
</g>
<g>
</g>
<g>
</g>
</svg>
