<?xml version="1.0" encoding="iso-8859-1"?>
<!-- Generator: Adobe Illustrator 19.0.0, SVG Export Plug-In . SVG Version: 6.00 Build 0)  -->
<svg version="1.1" id="Capa_1" xmlns="http://www.w3.org/2000/svg" xmlns:xlink="http://www.w3.org/1999/xlink" x="0px" y="0px"
	 viewBox="0 0 512 512" style="enable-background:new 0 0 512 512;" xml:space="preserve">
<g>
	<g>
		<path d="M504.485,0H209.91c-1.975,0-3.92,0.806-5.315,2.202l-90.173,90.173c-1.397,1.396-2.202,3.341-2.202,5.315v38.575H7.515
			c-4.15,0-7.515,3.365-7.515,7.515v104.704C0,252.635,3.365,256,7.515,256c4.15,0,7.515-3.365,7.515-7.515v-97.19h225.44v289.566
			H15.029V284.556c0-4.15-3.365-7.515-7.515-7.515c-4.15,0-7.515,3.364-7.515,7.515v163.82c0,4.15,3.365,7.515,7.515,7.515h104.705
			v48.595c0,4.15,3.365,7.515,7.515,7.515h384.751c4.15,0,7.515-3.365,7.515-7.515V7.515C512,3.365,508.635,0,504.485,0z
			 M202.395,25.656v64.52h-64.52L202.395,25.656z M496.971,496.971H127.249v-41.08h120.736c4.15,0,7.515-3.365,7.515-7.515V143.781
			c0-4.15-3.365-7.515-7.515-7.515H127.249v-31.061h82.661c4.15,0,7.515-3.365,7.515-7.515V15.029h279.546V496.971z"/>
	</g>
</g>
<g>
	<g>
		<path d="M436.352,175.342c10.773,0,19.538-8.765,19.538-19.538v-12.023c0-28.116-20.971-51.424-48.094-55.103v-13.03
			c0-10.773-8.765-19.538-19.538-19.538s-19.538,8.765-19.538,19.538v14.025c-27.846,6.211-48.094,30.966-48.094,60.119
			c0,33.977,27.643,61.62,61.62,61.62h12.023c12.431,0,22.544,10.113,22.544,22.544s-10.113,22.544-22.544,22.544h-18.035
			c-9.116,0-16.532-7.417-16.532-16.532c0-10.773-8.765-19.538-19.538-19.538s-19.538,8.765-19.538,19.538
			c0,28.116,20.971,51.424,48.094,55.103v13.03c0,10.773,8.765,19.538,19.538,19.538s19.538-8.765,19.538-19.538v-14.025
			c27.846-6.211,48.094-30.966,48.094-60.119c0-33.977-27.643-61.62-61.62-61.62h-12.023c-12.431,0-22.544-10.113-22.544-22.544
			s10.113-22.544,22.544-22.544h18.035c9.116,0,16.532,7.417,16.532,16.532v12.023C416.814,166.577,425.579,175.342,436.352,175.342
			z M400.282,112.219h-18.035c-20.719,0-37.573,16.855-37.573,37.573c0,20.719,16.855,37.573,37.573,37.573h12.023
			c25.69,0,46.591,20.901,46.591,46.591c0,23.77-17.802,43.672-41.409,46.295c-3.805,0.423-6.685,3.639-6.685,7.469v20.381
			c0,2.486-2.023,4.509-4.509,4.509s-4.509-2.023-4.509-4.509v-20.039c0-4.15-3.365-7.515-7.515-7.515
			c-22.376,0-40.579-18.204-40.579-40.579c0-2.486,2.023-4.509,4.509-4.509s4.509,2.023,4.509,4.509
			c0,17.403,14.159,31.562,31.562,31.562h18.035c20.718,0,37.573-16.855,37.573-37.573c0-20.719-16.855-37.573-37.573-37.573
			h-12.023c-25.69,0-46.591-20.901-46.591-46.591c0-23.77,17.802-43.672,41.409-46.295c3.805-0.423,6.685-3.639,6.685-7.469V75.648
			c0-2.486,2.023-4.509,4.509-4.509s4.509,2.023,4.509,4.509v20.039c0,4.15,3.365,7.515,7.515,7.515
			c22.376,0,40.579,18.204,40.579,40.579v12.023c0,2.486-2.023,4.509-4.509,4.509s-4.509-2.023-4.509-4.509v-12.023
			C431.843,126.378,417.685,112.219,400.282,112.219z"/>
	</g>
</g>
<g>
	<g>
		<path d="M352.188,360.704h-56.11c-4.15,0-7.515,3.365-7.515,7.515s3.365,7.515,7.515,7.515h56.11c4.15,0,7.515-3.365,7.515-7.515
			S356.338,360.704,352.188,360.704z"/>
	</g>
</g>
<g>
	<g>
		<path d="M464.407,360.704H384.25c-4.15,0-7.515,3.365-7.515,7.515s3.365,7.515,7.515,7.515h80.157c4.15,0,7.515-3.365,7.515-7.515
			S468.557,360.704,464.407,360.704z"/>
	</g>
</g>
<g>
	<g>
		<path d="M328.141,400.783h-32.063c-4.15,0-7.515,3.365-7.515,7.515c0,4.15,3.365,7.515,7.515,7.515h32.063
			c4.15,0,7.515-3.365,7.515-7.515C335.656,404.147,332.291,400.783,328.141,400.783z"/>
	</g>
</g>
<g>
	<g>
		<path d="M464.407,400.783H360.203c-4.15,0-7.515,3.365-7.515,7.515c0,4.15,3.365,7.515,7.515,7.515h104.204
			c4.15,0,7.515-3.365,7.515-7.515C471.922,404.147,468.557,400.783,464.407,400.783z"/>
	</g>
</g>
<g>
	<g>
		<path d="M376.235,440.861h-80.157c-4.15,0-7.515,3.365-7.515,7.515s3.365,7.515,7.515,7.515h80.157
			c4.15,0,7.515-3.365,7.515-7.515S380.385,440.861,376.235,440.861z"/>
	</g>
</g>
<g>
	<g>
		<path d="M464.407,440.861h-56.11c-4.15,0-7.515,3.365-7.515,7.515s3.365,7.515,7.515,7.515h56.11c4.15,0,7.515-3.365,7.515-7.515
			S468.557,440.861,464.407,440.861z"/>
	</g>
</g>
<g>
	<g>
		<path d="M215.922,168.329H39.577c-4.15,0-7.515,3.365-7.515,7.515v48.094c0,4.15,3.365,7.515,7.515,7.515h176.344
			c4.15,0,7.515-3.365,7.515-7.515v-48.094C223.436,171.693,220.072,168.329,215.922,168.329z M208.407,216.423H47.092v-33.065
			h161.315V216.423z"/>
	</g>
</g>
<g>
	<g>
		<path d="M215.922,248.485h-64.125c-4.15,0-7.515,3.365-7.515,7.515v64.125c0,4.15,3.365,7.515,7.515,7.515h64.125
			c4.15,0,7.515-3.365,7.515-7.515V256C223.436,251.85,220.072,248.485,215.922,248.485z M208.407,312.611h-49.096v-49.096h49.096
			V312.611z"/>
	</g>
</g>
<g>
	<g>
		<path d="M103.703,248.485H39.577c-4.15,0-7.515,3.365-7.515,7.515v64.125c0,4.15,3.365,7.515,7.515,7.515h64.125
			c4.15,0,7.515-3.365,7.515-7.515V256C111.217,251.85,107.853,248.485,103.703,248.485z M96.188,312.611H47.092v-49.096h49.096
			V312.611z"/>
	</g>
</g>
<g>
	<g>
		<path d="M215.922,344.673h-64.125c-4.15,0-7.515,3.365-7.515,7.515v64.125c0,4.15,3.365,7.515,7.515,7.515h64.125
			c4.15,0,7.515-3.365,7.515-7.515v-64.125C223.436,348.038,220.072,344.673,215.922,344.673z M208.407,408.798h-49.096v-49.096
			h49.096V408.798z"/>
	</g>
</g>
<g>
	<g>
		<path d="M103.703,344.673H39.577c-4.15,0-7.515,3.365-7.515,7.515v64.125c0,4.15,3.365,7.515,7.515,7.515h64.125
			c4.15,0,7.515-3.365,7.515-7.515v-64.125C111.217,348.038,107.853,344.673,103.703,344.673z M96.188,408.798H47.092v-49.096
			h49.096V408.798z"/>
	</g>
</g>
<g>
	<g>
		<path d="M79.656,280.548h-0.501v-0.501c0-4.15-3.365-7.515-7.515-7.515c-4.15,0-7.515,3.365-7.515,7.515v0.501h-0.501
			c-4.15,0-7.515,3.365-7.515,7.515s3.365,7.515,7.515,7.515h0.501v0.501c0,4.15,3.365,7.515,7.515,7.515
			c4.15,0,7.515-3.365,7.515-7.515v-0.501h0.501c4.15,0,7.515-3.365,7.515-7.515S83.806,280.548,79.656,280.548z"/>
	</g>
</g>
<g>
	<g>
		<path d="M191.875,280.548h-16.031c-4.15,0-7.515,3.365-7.515,7.515s3.365,7.515,7.515,7.515h16.031
			c4.15,0,7.515-3.365,7.515-7.515S196.025,280.548,191.875,280.548z"/>
	</g>
</g>
<g>
	<g>
		<path d="M82.267,384.25l2.702-2.702c2.935-2.934,2.935-7.693,0-10.627c-2.935-2.935-7.693-2.935-10.627,0l-2.702,2.702
			l-2.702-2.702c-2.935-2.935-7.693-2.935-10.627,0c-2.935,2.935-2.935,7.693,0,10.627l2.702,2.702l-2.702,2.702
			c-2.935,2.935-2.935,7.693,0,10.627c1.467,1.468,3.391,2.201,5.313,2.201s3.846-0.733,5.313-2.201l2.702-2.702l2.702,2.702
			c1.467,1.468,3.391,2.201,5.313,2.201s3.846-0.733,5.313-2.201c2.935-2.935,2.935-7.693,0-10.627L82.267,384.25z"/>
	</g>
</g>
<g>
	<g>
		<path d="M197.188,370.921c-2.935-2.935-7.693-2.935-10.627,0l-16.031,16.031c-4.63,4.628-1.258,12.828,5.313,12.828
			c1.923,0,3.846-0.733,5.313-2.201l16.031-16.031C200.123,378.614,200.123,373.855,197.188,370.921z"/>
	</g>
</g>
<g>
</g>
<g>
</g>
<g>
</g>
<g>
</g>
<g>
</g>
<g>
</g>
<g>
</g>
<g>
</g>
<g>
</g>
<g>
</g>
<g>
</g>
<g>
</g>
<g>
</g>
<g>
</g>
<g>
</g>
</svg>
